<svg width="100%" height="62" viewBox="0 0 407 62" xmlns="http://www.w3.org/2000/svg"><g fill="#F1FF54" fill-rule="evenodd"><path d="M72.6214635,24.1490296 C63.8472569,22.3549875 5.07326415,26.7180764 1.29226207,26.3252107 C-2.26056072,25.6735631 2.3101556,11.5531916 5.42088103,9.36360211 C6.52255915,8.58859739 7.83993799,8.38613076 10.9043145,8.63552674 C14.1344775,8.89833111 47.9067945,7.18473935 78.1084623,5.71115771 C78.1084623,5.71115771 177.774679,2.63259224 193.103692,2.25581658 C198.337554,2.12575524 194.214283,3.02948047 200.371559,2.62856972 C213.490085,1.77445552 242.121238,2.21961394 252.048819,1.41511077 C260.010137,0.768826555 261.723264,0.735305589 269.374401,1.20728078 C276.021905,1.61623656 318.668257,1.14292053 323.470718,0.141314081 C324.638355,-0.102718548 325.518984,-0.0169048766 325.518984,0.292828845 C325.518984,0.292828845 346.434824,0.669604497 353.615341,0.964588993 C354.42823,0.998109959 354.89885,1.03833512 354.914894,1.06783357 C355.135942,1.38024897 356.016572,1.52640038 356.850852,1.33063794 C358.371453,0.973974864 389.555361,0.255285363 390.04559,1.16437395 C391.459232,3.77766842 386.911691,14.6411429 383.285779,17.2919809 C379.508342,20.0514268 359.612178,16.617539 343.04244,18.1930244 C257.204245,17.7693194 267.408137,18.1072108 251.02023,19.2496053 C249.155577,18.3257674 242.039236,20.6507816 237.677089,19.0726146 C235.851655,18.4115811 222.945264,18.4397387 220.094806,19.1423382 C218.009104,19.6558794 152.163337,19.1409973 144.863382,21.2809758 C131.38476,19.8556643 79.2743158,23.7494597 72.6214635,24.1490296" id="Fill-1" style="mix-blend-mode: multiply;"></path><path d="M82.5166594,37.200264 C74.2650099,35.1864235 13.8478389,37.4306143 9.44581552,36.8278415 C5.86552602,36.0167879 11.5902151,21.6840367 14.9183232,19.5695041 C16.0917386,18.8122449 17.4452836,18.6950008 20.5520897,19.0412158 C25.468769,19.6964037 89.1419963,18.4094768 89.1419963,18.4094768 C89.9860319,18.8550046 92.5026993,17.3556589 92.9727516,17.8977406 C94.4395209,19.15846 197.616019,17.4425575 206.413204,17.368073 C211.750185,17.3225547 207.526576,18.188782 213.808809,17.8384289 C227.195009,17.1501368 256.358843,17.810842 266.488986,17.0204786 C274.60511,16.3666701 276.353224,16.3528767 284.145115,16.8728889 C292.105126,17.3391068 334.42528,16.6618495 339.264761,15.6618259 C340.445038,15.3859574 341.349117,15.4838907 341.352548,15.8038982 C341.354264,15.8701067 371.180288,16.1018363 371.315814,16.3514973 C371.545694,16.6687462 372.449773,16.8218532 373.293809,16.5997791 C374.848069,16.2701161 406.607485,15.0618118 407.115278,15.9956269 C408.67297,18.6467238 404.306973,29.9283687 400.620321,32.6773989 C396.851324,35.6098818 376.120985,32.3173905 359.456427,34.089846 L281.889206,34.2650225 L265.260674,35.3643588 C263.36331,34.4098535 256.026032,36.8112894 251.606853,35.1050423 C249.735221,34.4291643 236.534298,34.327093 233.609337,35.0457306 C231.073799,35.6002264 163.494333,34.2043314 156.561918,36.121618 C144.223901,34.5160629 94.1324429,36.80991 82.5166594,37.200264" id="Fill-4" style="mix-blend-mode: multiply;"></path><path d="M76.2286505,47.9862112 C68.084174,45.815639 7.85588119,46.682507 3.49454572,45.9898292 C-0.0398174015,45.1093526 6.15904375,31.1033787 9.5475715,29.0906664 C10.7434215,28.3721322 12.0936855,28.2850371 15.1751011,28.6960169 C20.0460025,29.4512944 83.4826735,29.6023498 83.4826735,29.6023498 C84.3062144,30.0609598 86.8643384,28.6374999 87.3121388,29.1845657 C88.7293155,30.458331 191.507223,31.0666355 200.267639,31.1891129 C205.582909,31.2653211 201.346821,32.0246811 207.616026,31.8191912 C220.965968,31.4395112 249.976912,32.7404936 260.089309,32.1879843 C268.190892,31.7225701 269.932338,31.7470656 277.671907,32.4343001 C285.581332,33.0711827 327.736332,33.3474373 332.588361,32.4696824 C333.773917,32.2233667 334.669518,32.3404007 334.662655,32.6561203 C334.660939,32.7214416 364.346158,33.6141659 364.47312,33.8632033 C364.691016,34.1816446 365.586616,34.3517522 366.434177,34.1544274 C367.992042,33.8632033 399.652043,33.3800979 400.12558,34.3109264 C401.583933,36.9605213 396.843426,47.9902938 393.075726,50.6194758 C389.220525,53.4255697 368.698915,49.7172254 352.044515,51.094416 L274.816965,49.5375919 L258.226047,50.2506827 C256.369649,49.2654198 248.980085,51.4713743 244.639338,49.6913691 C242.800096,48.981 229.661187,48.5863505 226.723891,49.2300375 C224.179493,49.7199471 156.951102,46.8376451 149.981887,48.5727419 C137.75402,46.7138068 87.8045476,47.8596512 76.2286505,47.9862112" id="Fill-6" style="mix-blend-mode: multiply;"></path><path d="M87.7718522,61.0250755 C79.2353497,59.1052817 22.1984109,62.4036577 18.5769652,61.9581083 C15.1533855,61.2635754 20.0418384,47.5406537 23.1278821,45.4505028 C24.2219644,44.711415 25.505599,44.5358161 28.4669373,44.8293545 C31.4166364,45.1215825 60.4547118,44.147926 93.699517,43.1061266 C93.699517,43.1061266 179.48854,41.9752174 205.279286,41.8507257 C210.357291,41.8271378 206.328474,42.6291267 212.311009,42.3578657 C225.054242,41.7799619 252.790392,42.7876899 262.44093,42.2071652 C270.179318,41.7406488 271.842057,41.7393383 279.239583,42.3604866 C285.528062,42.8872833 327.010077,43.3406953 331.708978,42.4679426 C332.851279,42.2556515 333.700939,42.3565553 333.690962,42.6605772 C334.452497,42.7143053 337.350651,42.8322448 338.120499,42.8650058 C338.423118,42.8767997 362.047315,43.8412832 362.15373,44.0640579 C362.356584,44.3720111 363.204581,44.5371265 364.020986,44.3628381 C365.507475,44.0457117 395.754362,44.0483326 396.198313,44.9486045 C397.473634,47.532791 392.674969,58.0412049 389.063499,60.5506964 C385.307372,63.1584709 366.179221,59.3568861 350.034025,60.5297293 C350.034025,60.5297293 345.446528,60.4026167 338.562788,60.2139134 C269.545814,58.3137763 274.710282,58.9283724 260.821422,59.6098009 C259.04728,58.6689054 252.068764,60.7931277 247.898614,59.1655619 C246.151075,58.4841334 233.642289,58.2495647 230.855538,58.8798861 C228.868565,59.3306773 164.828169,57.5550318 157.87792,59.5233119 C144.637529,57.8551225 93.0843035,60.8023007 87.7718522,61.0250755" id="Fill-8" style="mix-blend-mode: multiply;"></path></g></svg>
